<svg width="960" height="540" xmlns="http://www.w3.org/2000/svg" version="1.1">

 <g>
  <title>Layer 1</title>
  <path id="svg_5" fill="#7a5162" d="m0,541l87,0l88,0l87,0l87,0l87,0l88,0l87,0l87,0l87,0l88,0l87,0l0,-217.71399l-262,26.71399l-174,11l-415.57151,-50.85682l-108.42849,44.85682"/>
  <path id="svg_4" fill="#744a5c" d="m0,419.8569l189.14314,9.57143l176.28605,-54.9998l312.5709,81.85678l283.42849,-52.42817l-1.42857,-206.57121l-960,4.42845l0,218.14252z"/>
  <path stroke="null" id="svg_1" fill="#6b4153" d="m-1.42857,215.28374l213.14372,81.88501l581.85624,-56.17083l170.71431,39.53371l-4.2857,-281.96019l-87,0l-88,0l-87,0l-87,0l-87,0l-88,0l-87,0l-87,0l-87,0l-88,0l-87,0l-1.42857,216.71231z"/>
 </g>
</svg>